STARTFONT 2.3
FONT -FontForge-Zen Tokyo Zoo-Book-R-Normal--9-90-72-72-P-42-ISO10646-1
SIZE 9 72 72  4
FONTBOUNDINGBOX 12 14 -1 -3
COMMENT "Generated by fontforge, http://fontforge.sourceforge.net"
COMMENT "Copyright 2021 The Zen Tokyo Zoo Project Authors (https://github.com/googlefonts/zen-tokyo-zoo)"
STARTPROPERTIES 41
FOUNDRY "FontForge"
FAMILY_NAME "Zen Tokyo Zoo"
WEIGHT_NAME "Book"
SLANT "R"
SETWIDTH_NAME "Normal"
ADD_STYLE_NAME ""
PIXEL_SIZE 9
POINT_SIZE 90
RESOLUTION_X 72
RESOLUTION_Y 72
SPACING "P"
AVERAGE_WIDTH 42
CHARSET_REGISTRY "ISO10646"
CHARSET_ENCODING "1"
FONTNAME_REGISTRY ""
CHARSET_COLLECTIONS "ISO10646-1"
BITS_PER_PIXEL 4
FONT_NAME "ZenTokyoZoo-Regular"
FACE_NAME "Zen Tokyo Zoo Regular"
COPYRIGHT "Copyright 2021 The Zen Tokyo Zoo Project Authors (https://github.com/googlefonts/zen-tokyo-zoo)"
FONT_VERSION "1.002; ttfautohint (v1.8.3)"
FONT_ASCENT 7
FONT_DESCENT 2
UNDERLINE_POSITION -1
UNDERLINE_THICKNESS 1
X_HEIGHT 3
CAP_HEIGHT 7
RAW_ASCENT 800
RAW_DESCENT 200
NORM_SPACE 3
RELATIVE_WEIGHT 40
RELATIVE_SETWIDTH 50
SUPERSCRIPT_X 0
SUPERSCRIPT_Y 3
SUPERSCRIPT_SIZE 5
SUBSCRIPT_X 0
SUBSCRIPT_Y 0
SUBSCRIPT_SIZE 5
FIGURE_WIDTH 3
AVG_LOWERCASE_WIDTH 37
AVG_UPPERCASE_WIDTH 67
ENDPROPERTIES
CHARS 338
STARTCHAR CR
ENCODING 13
SWIDTH 600 0
DWIDTH 5 0
BBX 1 1 0 0
BITMAP
00
ENDCHAR
STARTCHAR space
ENCODING 32
SWIDTH 280 0
DWIDTH 3 0
BBX 1 1 0 0
BITMAP
00
ENDCHAR
STARTCHAR exclam
ENCODING 33
SWIDTH 196 0
DWIDTH 2 0
BBX 2 4 0 0
BITMAP
44
44
33
33
ENDCHAR
STARTCHAR quotedbl
ENCODING 34
SWIDTH 302 0
DWIDTH 3 0
BBX 3 2 0 2
BITMAP
7640
2210
ENDCHAR
STARTCHAR numbersign
ENCODING 35
SWIDTH 513 0
DWIDTH 5 0
BBX 5 4 0 0
BITMAP
157710
165510
355600
144300
ENDCHAR
STARTCHAR dollar
ENCODING 36
SWIDTH 379 0
DWIDTH 3 0
BBX 4 5 0 0
BITMAP
1530
6640
3860
2471
2530
ENDCHAR
STARTCHAR percent
ENCODING 37
SWIDTH 493 0
DWIDTH 4 0
BBX 5 4 0 0
BITMAP
693500
467100
055510
264920
ENDCHAR
STARTCHAR ampersand
ENCODING 38
SWIDTH 487 0
DWIDTH 4 0
BBX 4 4 0 0
BITMAP
0891
0761
4576
4865
ENDCHAR
STARTCHAR quotesingle
ENCODING 39
SWIDTH 146 0
DWIDTH 1 0
BBX 2 2 0 2
BITMAP
71
20
ENDCHAR
STARTCHAR parenleft
ENCODING 40
SWIDTH 210 0
DWIDTH 2 0
BBX 2 5 0 0
BITMAP
22
44
63
53
44
ENDCHAR
STARTCHAR parenright
ENCODING 41
SWIDTH 210 0
DWIDTH 2 0
BBX 2 5 0 0
BITMAP
31
44
44
44
53
ENDCHAR
STARTCHAR asterisk
ENCODING 42
SWIDTH 358 0
DWIDTH 3 0
BBX 3 3 0 1
BITMAP
1420
2340
0210
ENDCHAR
STARTCHAR plus
ENCODING 43
SWIDTH 394 0
DWIDTH 4 0
BBX 4 3 0 1
BITMAP
0430
3551
0530
ENDCHAR
STARTCHAR comma
ENCODING 44
SWIDTH 216 0
DWIDTH 2 0
BBX 2 1 0 0
BITMAP
44
ENDCHAR
STARTCHAR hyphen
ENCODING 45
SWIDTH 326 0
DWIDTH 3 0
BBX 3 2 0 1
BITMAP
2420
2420
ENDCHAR
STARTCHAR period
ENCODING 46
SWIDTH 176 0
DWIDTH 2 0
BBX 2 1 0 0
BITMAP
43
ENDCHAR
STARTCHAR slash
ENCODING 47
SWIDTH 298 0
DWIDTH 3 0
BBX 3 4 0 0
BITMAP
0530
0800
4500
5400
ENDCHAR
STARTCHAR zero
ENCODING 48
SWIDTH 306 0
DWIDTH 3 0
BBX 3 4 0 0
BITMAP
5930
6640
6640
5930
ENDCHAR
STARTCHAR one
ENCODING 49
SWIDTH 306 0
DWIDTH 3 0
BBX 3 4 0 0
BITMAP
5540
0440
0440
0440
ENDCHAR
STARTCHAR two
ENCODING 50
SWIDTH 299 0
DWIDTH 3 0
BBX 3 4 0 0
BITMAP
4A30
0640
4500
7930
ENDCHAR
STARTCHAR three
ENCODING 51
SWIDTH 324 0
DWIDTH 3 0
BBX 3 4 0 0
BITMAP
4A40
0330
1340
4930
ENDCHAR
STARTCHAR four
ENCODING 52
SWIDTH 339 0
DWIDTH 3 0
BBX 3 4 0 0
BITMAP
0620
4500
3560
3460
ENDCHAR
STARTCHAR five
ENCODING 53
SWIDTH 363 0
DWIDTH 3 0
BBX 3 4 0 0
BITMAP
2860
4530
1360
3850
ENDCHAR
STARTCHAR six
ENCODING 54
SWIDTH 306 0
DWIDTH 3 0
BBX 3 4 0 0
BITMAP
5830
6520
6450
5930
ENDCHAR
STARTCHAR seven
ENCODING 55
SWIDTH 298 0
DWIDTH 3 0
BBX 3 4 0 0
BITMAP
6940
0320
0810
2600
ENDCHAR
STARTCHAR eight
ENCODING 56
SWIDTH 306 0
DWIDTH 3 0
BBX 3 4 0 0
BITMAP
5930
5730
5550
5930
ENDCHAR
STARTCHAR nine
ENCODING 57
SWIDTH 306 0
DWIDTH 3 0
BBX 3 4 0 0
BITMAP
5930
5540
3640
5930
ENDCHAR
STARTCHAR colon
ENCODING 58
SWIDTH 176 0
DWIDTH 2 0
BBX 2 2 0 0
BITMAP
43
43
ENDCHAR
STARTCHAR semicolon
ENCODING 59
SWIDTH 217 0
DWIDTH 2 0
BBX 2 3 0 -1
BITMAP
33
11
44
ENDCHAR
STARTCHAR less
ENCODING 60
SWIDTH 450 0
DWIDTH 4 0
BBX 4 4 0 0
BITMAP
0013
0373
2751
0045
ENDCHAR
STARTCHAR equal
ENCODING 61
SWIDTH 344 0
DWIDTH 3 0
BBX 3 3 0 0
BITMAP
3430
3430
3430
ENDCHAR
STARTCHAR greater
ENCODING 62
SWIDTH 450 0
DWIDTH 4 0
BBX 4 4 0 0
BITMAP
3200
3751
1462
5400
ENDCHAR
STARTCHAR question
ENCODING 63
SWIDTH 346 0
DWIDTH 3 0
BBX 3 4 0 0
BITMAP
3A40
1640
0710
0500
ENDCHAR
STARTCHAR at
ENCODING 64
SWIDTH 490 0
DWIDTH 4 0
BBX 5 4 0 0
BITMAP
266400
645700
644310
265100
ENDCHAR
STARTCHAR A
ENCODING 65
SWIDTH 798 0
DWIDTH 7 0
BBX 7 8 0 0
BITMAP
00464000
00576000
01866300
04647400
05806700
18646630
46544840
58000670
ENDCHAR
STARTCHAR B
ENCODING 66
SWIDTH 784 0
DWIDTH 7 0
BBX 7 8 0 0
BITMAP
48689600
48345640
48001750
48345540
48345550
48000670
48344650
48788800
ENDCHAR
STARTCHAR C
ENCODING 67
SWIDTH 776 0
DWIDTH 7 0
BBX 7 8 0 0
BITMAP
01788720
08444540
46400100
67000000
67000000
46400200
18444540
01788720
ENDCHAR
STARTCHAR D
ENCODING 68
SWIDTH 806 0
DWIDTH 7 0
BBX 7 8 0 0
BITMAP
48689200
48344820
48002760
48000480
48000480
48002770
48344820
48688300
ENDCHAR
STARTCHAR E
ENCODING 69
SWIDTH 677 0
DWIDTH 6 0
BBX 6 8 0 0
BITMAP
486887
483443
480000
483441
486883
480000
483443
486887
ENDCHAR
STARTCHAR F
ENCODING 70
SWIDTH 677 0
DWIDTH 6 0
BBX 6 8 0 0
BITMAP
487997
483444
480000
483441
487993
480000
480000
480000
ENDCHAR
STARTCHAR G
ENCODING 71
SWIDTH 872 0
DWIDTH 8 0
BBX 8 8 0 0
BITMAP
01788720
08444571
46400220
67004442
67004442
46404553
18444572
01789820
ENDCHAR
STARTCHAR H
ENCODING 72
SWIDTH 781 0
DWIDTH 7 0
BBX 7 8 0 0
BITMAP
48000840
48000840
48000840
48344840
48797840
48000840
48000840
48000840
ENDCHAR
STARTCHAR I
ENCODING 73
SWIDTH 262 0
DWIDTH 2 0
BBX 2 8 0 0
BITMAP
48
48
48
48
48
48
48
48
ENDCHAR
STARTCHAR J
ENCODING 74
SWIDTH 674 0
DWIDTH 6 0
BBX 6 8 0 0
BITMAP
000084
000084
000084
000084
110084
660074
464463
078850
ENDCHAR
STARTCHAR K
ENCODING 75
SWIDTH 739 0
DWIDTH 7 0
BBX 7 8 0 0
BITMAP
48006720
48047400
48066000
48452000
48672000
48277000
48047500
48006730
ENDCHAR
STARTCHAR L
ENCODING 76
SWIDTH 604 0
DWIDTH 5 0
BBX 6 8 0 0
BITMAP
480000
480000
480000
480000
480000
480000
483441
486883
ENDCHAR
STARTCHAR M
ENCODING 77
SWIDTH 909 0
DWIDTH 8 0
BBX 8 8 0 0
BITMAP
48100166
48500566
48554666
48576666
48266266
48042066
48001066
48000066
ENDCHAR
STARTCHAR N
ENCODING 78
SWIDTH 796 0
DWIDTH 7 0
BBX 7 8 0 0
BITMAP
48100760
48500760
48550760
48572760
48176760
48046760
48006760
48001760
ENDCHAR
STARTCHAR O
ENCODING 79
SWIDTH 894 0
DWIDTH 8 0
BBX 8 8 0 0
BITMAP
01788710
08444481
46400365
67000066
67000066
46400365
18444471
01788710
ENDCHAR
STARTCHAR P
ENCODING 80
SWIDTH 743 0
DWIDTH 7 0
BBX 7 8 0 0
BITMAP
48799700
48345640
48001850
48345520
48345300
48000000
48000000
48000000
ENDCHAR
STARTCHAR Q
ENCODING 81
SWIDTH 911 0
DWIDTH 8 0
BBX 8 8 0 0
BITMAP
01788710
08444481
46400465
67000067
67000366
46402783
18444676
01789564
ENDCHAR
STARTCHAR R
ENCODING 82
SWIDTH 745 0
DWIDTH 7 0
BBX 7 8 0 0
BITMAP
48799700
48345640
48001850
48345520
48345300
48036400
48007600
48004630
ENDCHAR
STARTCHAR S
ENCODING 83
SWIDTH 660 0
DWIDTH 6 0
BBX 6 8 0 0
BITMAP
078860
564564
581020
379630
025983
020084
564564
178970
ENDCHAR
STARTCHAR T
ENCODING 84
SWIDTH 641 0
DWIDTH 6 0
BBX 6 8 0 0
BITMAP
899996
445543
008500
008500
008500
008500
008500
008500
ENDCHAR
STARTCHAR U
ENCODING 85
SWIDTH 702 0
DWIDTH 6 0
BBX 6 8 0 0
BITMAP
480048
480048
480048
480048
480048
471058
374455
058871
ENDCHAR
STARTCHAR V
ENCODING 86
SWIDTH 758 0
DWIDTH 7 0
BBX 7 8 0 0
BITMAP
58001740
46304720
17406700
06717400
04757200
02657000
00762000
00481000
ENDCHAR
STARTCHAR W
ENCODING 87
SWIDTH 972 0
DWIDTH 9 0
BBX 9 8 0 0
BITMAP
5704631740
4814814630
3547544800
1857566500
0766584400
0485465300
0464175000
0274085000
ENDCHAR
STARTCHAR X
ENCODING 88
SWIDTH 712 0
DWIDTH 6 0
BBX 7 8 0 0
BITMAP
46407700
07746300
04666000
00772000
01664000
05667000
17536500
57206710
ENDCHAR
STARTCHAR Y
ENCODING 89
SWIDTH 769 0
DWIDTH 7 0
BBX 7 8 0 0
BITMAP
57203750
17606710
04666400
00775000
00332000
00453000
00453000
00453000
ENDCHAR
STARTCHAR Z
ENCODING 90
SWIDTH 708 0
DWIDTH 6 0
BBX 7 8 0 0
BITMAP
28876710
14456400
00077000
00464000
01760000
05730000
27644300
57788500
ENDCHAR
STARTCHAR bracketleft
ENCODING 91
SWIDTH 320 0
DWIDTH 3 0
BBX 3 5 0 -1
BITMAP
3420
4400
4400
4620
3420
ENDCHAR
STARTCHAR backslash
ENCODING 92
SWIDTH 298 0
DWIDTH 3 0
BBX 3 4 0 0
BITMAP
5400
4500
0800
0530
ENDCHAR
STARTCHAR bracketright
ENCODING 93
SWIDTH 320 0
DWIDTH 3 0
BBX 3 5 0 -1
BITMAP
2430
0440
0440
2540
2430
ENDCHAR
STARTCHAR asciicircum
ENCODING 94
SWIDTH 309 0
DWIDTH 3 0
BBX 3 2 0 2
BITMAP
0300
3620
ENDCHAR
STARTCHAR underscore
ENCODING 95
SWIDTH 472 0
DWIDTH 4 0
BBX 4 2 0 0
BITMAP
2443
2443
ENDCHAR
STARTCHAR grave
ENCODING 96
SWIDTH 195 0
DWIDTH 2 0
BBX 2 1 0 5
BITMAP
31
ENDCHAR
STARTCHAR a
ENCODING 97
SWIDTH 414 0
DWIDTH 4 0
BBX 4 4 0 0
BITMAP
0660
1770
4672
6674
ENDCHAR
STARTCHAR b
ENCODING 98
SWIDTH 423 0
DWIDTH 4 0
BBX 4 4 0 0
BITMAP
5A93
5765
5744
5A93
ENDCHAR
STARTCHAR c
ENCODING 99
SWIDTH 446 0
DWIDTH 4 0
BBX 4 4 0 0
BITMAP
2883
5300
5300
2883
ENDCHAR
STARTCHAR d
ENCODING 100
SWIDTH 450 0
DWIDTH 4 0
BBX 4 4 0 0
BITMAP
5A92
5336
5336
5A82
ENDCHAR
STARTCHAR e
ENCODING 101
SWIDTH 363 0
DWIDTH 3 0
BBX 4 4 0 0
BITMAP
5A81
5730
5730
5A81
ENDCHAR
STARTCHAR f
ENCODING 102
SWIDTH 365 0
DWIDTH 3 0
BBX 4 4 0 0
BITMAP
5A91
5740
5740
5300
ENDCHAR
STARTCHAR g
ENCODING 103
SWIDTH 483 0
DWIDTH 4 0
BBX 4 4 0 0
BITMAP
2884
5324
5337
2894
ENDCHAR
STARTCHAR h
ENCODING 104
SWIDTH 428 0
DWIDTH 4 0
BBX 4 4 0 0
BITMAP
5344
5774
5774
5344
ENDCHAR
STARTCHAR i
ENCODING 105
SWIDTH 176 0
DWIDTH 2 0
BBX 2 4 0 0
BITMAP
53
53
53
53
ENDCHAR
STARTCHAR j
ENCODING 106
SWIDTH 390 0
DWIDTH 4 0
BBX 4 4 0 0
BITMAP
0062
0062
2162
3860
ENDCHAR
STARTCHAR k
ENCODING 107
SWIDTH 381 0
DWIDTH 3 0
BBX 4 4 0 0
BITMAP
5571
5840
5930
5671
ENDCHAR
STARTCHAR l
ENCODING 108
SWIDTH 330 0
DWIDTH 3 0
BBX 3 4 0 0
BITMAP
5300
5300
5300
5A70
ENDCHAR
STARTCHAR m
ENCODING 109
SWIDTH 501 0
DWIDTH 5 0
BBX 5 4 0 0
BITMAP
572820
598820
555620
530620
ENDCHAR
STARTCHAR n
ENCODING 110
SWIDTH 444 0
DWIDTH 4 0
BBX 4 4 0 0
BITMAP
5745
5965
5695
5375
ENDCHAR
STARTCHAR o
ENCODING 111
SWIDTH 494 0
DWIDTH 4 0
BBX 5 4 0 0
BITMAP
289400
530710
530710
289400
ENDCHAR
STARTCHAR p
ENCODING 112
SWIDTH 412 0
DWIDTH 4 0
BBX 4 4 0 0
BITMAP
5A93
5745
5751
5300
ENDCHAR
STARTCHAR q
ENCODING 113
SWIDTH 494 0
DWIDTH 4 0
BBX 5 4 0 0
BITMAP
289400
530710
532820
28A700
ENDCHAR
STARTCHAR r
ENCODING 114
SWIDTH 412 0
DWIDTH 4 0
BBX 4 4 0 0
BITMAP
5A93
5744
5781
5372
ENDCHAR
STARTCHAR s
ENCODING 115
SWIDTH 379 0
DWIDTH 3 0
BBX 4 4 0 0
BITMAP
3870
5640
1561
4870
ENDCHAR
STARTCHAR t
ENCODING 116
SWIDTH 349 0
DWIDTH 3 0
BBX 3 4 0 0
BITMAP
8C90
0800
0800
0800
ENDCHAR
STARTCHAR u
ENCODING 117
SWIDTH 400 0
DWIDTH 4 0
BBX 4 4 0 0
BITMAP
5344
5344
4353
3870
ENDCHAR
STARTCHAR v
ENCODING 118
SWIDTH 394 0
DWIDTH 4 0
BBX 4 4 0 0
BITMAP
6254
4481
2850
0850
ENDCHAR
STARTCHAR w
ENCODING 119
SWIDTH 521 0
DWIDTH 5 0
BBX 5 4 0 0
BITMAP
738440
488630
468A00
195700
ENDCHAR
STARTCHAR x
ENCODING 120
SWIDTH 369 0
DWIDTH 3 0
BBX 4 4 0 0
BITMAP
5670
1840
2840
5571
ENDCHAR
STARTCHAR y
ENCODING 121
SWIDTH 422 0
DWIDTH 4 0
BBX 4 4 0 0
BITMAP
5564
1880
0330
0440
ENDCHAR
STARTCHAR z
ENCODING 122
SWIDTH 409 0
DWIDTH 4 0
BBX 4 4 0 0
BITMAP
59B4
0570
2720
7A83
ENDCHAR
STARTCHAR braceleft
ENCODING 123
SWIDTH 443 0
DWIDTH 4 0
BBX 4 5 0 -1
BITMAP
0342
0440
2540
0452
0342
ENDCHAR
STARTCHAR bar
ENCODING 124
SWIDTH 196 0
DWIDTH 2 0
BBX 2 5 0 0
BITMAP
22
44
44
44
44
ENDCHAR
STARTCHAR braceright
ENCODING 125
SWIDTH 506 0
DWIDTH 5 0
BBX 3 5 1 -1
BITMAP
4500
0800
0830
4800
4500
ENDCHAR
STARTCHAR asciitilde
ENCODING 126
SWIDTH 450 0
DWIDTH 4 0
BBX 4 2 0 1
BITMAP
1142
1142
ENDCHAR
STARTCHAR uni00A0
ENCODING 160
SWIDTH 280 0
DWIDTH 3 0
BBX 1 1 0 0
BITMAP
00
ENDCHAR
STARTCHAR exclamdown
ENCODING 161
SWIDTH 196 0
DWIDTH 2 0
BBX 2 4 0 -1
BITMAP
33
33
44
44
ENDCHAR
STARTCHAR cent
ENCODING 162
SWIDTH 305 0
DWIDTH 3 0
BBX 3 5 0 -1
BITMAP
0500
3520
9000
4520
0500
ENDCHAR
STARTCHAR sterling
ENCODING 163
SWIDTH 408 0
DWIDTH 4 0
BBX 4 4 0 0
BITMAP
5A50
5530
1100
9994
ENDCHAR
STARTCHAR currency
ENCODING 164
SWIDTH 401 0
DWIDTH 4 0
BBX 4 5 0 0
BITMAP
1010
3652
1550
3652
1010
ENDCHAR
STARTCHAR yen
ENCODING 165
SWIDTH 423 0
DWIDTH 4 0
BBX 4 4 0 0
BITMAP
5564
1780
2451
2561
ENDCHAR
STARTCHAR brokenbar
ENCODING 166
SWIDTH 196 0
DWIDTH 2 0
BBX 2 4 0 0
BITMAP
44
33
33
44
ENDCHAR
STARTCHAR section
ENCODING 167
SWIDTH 322 0
DWIDTH 3 0
BBX 3 4 0 0
BITMAP
5B20
4540
5540
3C40
ENDCHAR
STARTCHAR dieresis
ENCODING 168
SWIDTH 287 0
DWIDTH 3 0
BBX 3 1 0 5
BITMAP
6610
ENDCHAR
STARTCHAR copyright
ENCODING 169
SWIDTH 493 0
DWIDTH 4 0
BBX 5 5 0 0
BITMAP
044200
434500
440320
434500
044200
ENDCHAR
STARTCHAR ordfeminine
ENCODING 170
SWIDTH 331 0
DWIDTH 3 0
BBX 3 2 0 2
BITMAP
2910
4840
ENDCHAR
STARTCHAR guillemotleft
ENCODING 171
SWIDTH 298 0
DWIDTH 3 0
BBX 3 2 0 1
BITMAP
3420
4520
ENDCHAR
STARTCHAR logicalnot
ENCODING 172
SWIDTH 420 0
DWIDTH 4 0
BBX 4 3 0 0
BITMAP
3442
3442
0033
ENDCHAR
STARTCHAR uni00AD
ENCODING 173
SWIDTH 326 0
DWIDTH 3 0
BBX 3 2 0 1
BITMAP
2420
2420
ENDCHAR
STARTCHAR registered
ENCODING 174
SWIDTH 493 0
DWIDTH 4 0
BBX 5 5 0 0
BITMAP
044200
410500
459320
444500
044200
ENDCHAR
STARTCHAR macron
ENCODING 175
SWIDTH 331 0
DWIDTH 3 0
BBX 3 1 0 4
BITMAP
2420
ENDCHAR
STARTCHAR degree
ENCODING 176
SWIDTH 298 0
DWIDTH 3 0
BBX 3 3 0 2
BITMAP
2500
4330
2500
ENDCHAR
STARTCHAR plusminus
ENCODING 177
SWIDTH 418 0
DWIDTH 4 0
BBX 4 4 0 0
BITMAP
0440
2551
0330
5883
ENDCHAR
STARTCHAR uni00B2
ENCODING 178
SWIDTH 233 0
DWIDTH 2 0
BBX 2 2 0 2
BITMAP
35
44
ENDCHAR
STARTCHAR uni00B3
ENCODING 179
SWIDTH 228 0
DWIDTH 2 0
BBX 2 2 0 2
BITMAP
25
24
ENDCHAR
STARTCHAR acute
ENCODING 180
SWIDTH 195 0
DWIDTH 2 0
BBX 2 1 0 5
BITMAP
41
ENDCHAR
STARTCHAR uni00B5
ENCODING 181
SWIDTH 506 0
DWIDTH 5 0
BBX 5 5 0 -1
BITMAP
444400
444400
444400
487610
440000
ENDCHAR
STARTCHAR paragraph
ENCODING 182
SWIDTH 435 0
DWIDTH 4 0
BBX 4 4 0 0
BITMAP
5994
6443
3564
0264
ENDCHAR
STARTCHAR periodcentered
ENCODING 183
SWIDTH 176 0
DWIDTH 2 0
BBX 2 1 0 1
BITMAP
43
ENDCHAR
STARTCHAR cedilla
ENCODING 184
SWIDTH 261 0
DWIDTH 2 0
BBX 2 2 0 -2
BITMAP
35
24
ENDCHAR
STARTCHAR uni00B9
ENCODING 185
SWIDTH 218 0
DWIDTH 2 0
BBX 2 2 0 2
BITMAP
25
05
ENDCHAR
STARTCHAR ordmasculine
ENCODING 186
SWIDTH 335 0
DWIDTH 3 0
BBX 3 2 0 2
BITMAP
4840
4840
ENDCHAR
STARTCHAR guillemotright
ENCODING 187
SWIDTH 298 0
DWIDTH 3 0
BBX 3 2 0 1
BITMAP
3410
4520
ENDCHAR
STARTCHAR onequarter
ENCODING 188
SWIDTH 429 0
DWIDTH 4 0
BBX 4 4 0 0
BITMAP
5342
3450
0562
1526
ENDCHAR
STARTCHAR onehalf
ENCODING 189
SWIDTH 437 0
DWIDTH 4 0
BBX 4 4 0 0
BITMAP
5361
2462
0634
1233
ENDCHAR
STARTCHAR threequarters
ENCODING 190
SWIDTH 409 0
DWIDTH 4 0
BBX 4 4 0 0
BITMAP
2230
3350
0561
2434
ENDCHAR
STARTCHAR questiondown
ENCODING 191
SWIDTH 346 0
DWIDTH 3 0
BBX 3 5 0 -1
BITMAP
0400
0700
4600
4620
2520
ENDCHAR
STARTCHAR Agrave
ENCODING 192
SWIDTH 798 0
DWIDTH 7 0
BBX 7 10 0 0
BITMAP
00640000
00270000
00464000
00576000
01866300
04647400
05806700
18646630
46544840
58000670
ENDCHAR
STARTCHAR Aacute
ENCODING 193
SWIDTH 798 0
DWIDTH 7 0
BBX 7 10 0 0
BITMAP
00017100
00055000
00464000
00576000
01866300
04647400
05806700
18646630
46544840
58000670
ENDCHAR
STARTCHAR Acircumflex
ENCODING 194
SWIDTH 798 0
DWIDTH 7 0
BBX 7 10 0 0
BITMAP
00463000
02737200
00464000
00576000
01866300
04647400
05806700
18646630
46544840
58000670
ENDCHAR
STARTCHAR Atilde
ENCODING 195
SWIDTH 798 0
DWIDTH 7 0
BBX 7 10 0 0
BITMAP
00430200
00225100
00464000
00576000
01866300
04647400
05806700
18646630
46544840
58000670
ENDCHAR
STARTCHAR Adieresis
ENCODING 196
SWIDTH 798 0
DWIDTH 7 0
BBX 7 11 0 0
BITMAP
02504300
04134500
02505300
00464000
00576000
01866300
04647400
05806700
18646630
46544840
58000670
ENDCHAR
STARTCHAR Aring
ENCODING 197
SWIDTH 798 0
DWIDTH 7 0
BBX 7 11 0 0
BITMAP
00162000
00405000
00162000
00464000
00576000
01866300
04647400
05806700
18646630
46544840
58000670
ENDCHAR
STARTCHAR AE
ENCODING 198
SWIDTH 1078 0
DWIDTH 10 0
BBX 10 8 0 0
BITMAP
0003778884
0004854442
0045850000
0066764440
0364587880
0574580000
2754583442
5734567884
ENDCHAR
STARTCHAR Ccedilla
ENCODING 199
SWIDTH 776 0
DWIDTH 7 0
BBX 7 11 0 -3
BITMAP
01788720
08444540
46400100
67000000
67000000
46400200
18444540
01788720
00010000
00073000
00143000
ENDCHAR
STARTCHAR Egrave
ENCODING 200
SWIDTH 677 0
DWIDTH 6 0
BBX 6 10 0 0
BITMAP
003600
000630
486887
483443
480000
483441
486883
480000
483443
486887
ENDCHAR
STARTCHAR Eacute
ENCODING 201
SWIDTH 677 0
DWIDTH 6 0
BBX 6 10 0 0
BITMAP
000630
004600
486887
483443
480000
483441
486883
480000
483443
486887
ENDCHAR
STARTCHAR Ecircumflex
ENCODING 202
SWIDTH 677 0
DWIDTH 6 0
BBX 6 10 0 0
BITMAP
005530
037371
486887
483443
480000
483441
486883
480000
483443
486887
ENDCHAR
STARTCHAR Edieresis
ENCODING 203
SWIDTH 677 0
DWIDTH 6 0
BBX 6 11 0 0
BITMAP
025052
043335
025052
486887
483443
480000
483441
486883
480000
483443
486887
ENDCHAR
STARTCHAR Igrave
ENCODING 204
SWIDTH 262 0
DWIDTH 2 0
BBX 3 10 -1 0
BITMAP
3700
0640
0480
0480
0480
0480
0480
0480
0480
0480
ENDCHAR
STARTCHAR Iacute
ENCODING 205
SWIDTH 262 0
DWIDTH 2 0
BBX 3 10 0 0
BITMAP
0550
1710
4800
4800
4800
4800
4800
4800
4800
4800
ENDCHAR
STARTCHAR Icircumflex
ENCODING 206
SWIDTH 262 0
DWIDTH 2 0
BBX 4 10 -1 0
BITMAP
0751
5545
0480
0480
0480
0480
0480
0480
0480
0480
ENDCHAR
STARTCHAR Idieresis
ENCODING 207
SWIDTH 262 0
DWIDTH 2 0
BBX 5 11 -1 0
BITMAP
432500
444140
442500
048000
048000
048000
048000
048000
048000
048000
048000
ENDCHAR
STARTCHAR Eth
ENCODING 208
SWIDTH 856 0
DWIDTH 8 0
BBX 8 8 0 0
BITMAP
17789600
17544660
15300672
44430274
88860274
15300672
17545670
17789600
ENDCHAR
STARTCHAR Ntilde
ENCODING 209
SWIDTH 796 0
DWIDTH 7 0
BBX 7 10 0 0
BITMAP
00430200
00225100
48100760
48500760
48550760
48572760
48176760
48046760
48006760
48001760
ENDCHAR
STARTCHAR Ograve
ENCODING 210
SWIDTH 894 0
DWIDTH 8 0
BBX 8 10 0 0
BITMAP
00360000
00063000
01788710
08444481
46400365
67000066
67000066
46400365
18444471
01788710
ENDCHAR
STARTCHAR Oacute
ENCODING 211
SWIDTH 894 0
DWIDTH 8 0
BBX 8 10 0 0
BITMAP
00006300
00046000
01788710
08444481
46400365
67000066
67000066
46400365
18444471
01788710
ENDCHAR
STARTCHAR Ocircumflex
ENCODING 212
SWIDTH 894 0
DWIDTH 8 0
BBX 8 10 0 0
BITMAP
00175000
00645400
01788710
08444481
46400365
67000066
67000066
46400365
18444471
01788710
ENDCHAR
STARTCHAR Otilde
ENCODING 213
SWIDTH 894 0
DWIDTH 8 0
BBX 8 10 0 0
BITMAP
00340300
00205300
01788710
08444481
46400365
67000066
67000066
46400365
18444471
01788710
ENDCHAR
STARTCHAR Odieresis
ENCODING 214
SWIDTH 894 0
DWIDTH 8 0
BBX 8 11 0 0
BITMAP
00432500
00444310
00433500
01788710
08444481
46400365
67000066
67000066
46400365
18444471
01788710
ENDCHAR
STARTCHAR multiply
ENCODING 215
SWIDTH 370 0
DWIDTH 3 0
BBX 3 3 0 0
BITMAP
3550
3740
0230
ENDCHAR
STARTCHAR Oslash
ENCODING 216
SWIDTH 894 0
DWIDTH 8 0
BBX 8 8 0 0
BITMAP
01789562
18444860
46406644
67156566
57682167
44A30365
0A634481
12298710
ENDCHAR
STARTCHAR Ugrave
ENCODING 217
SWIDTH 702 0
DWIDTH 6 0
BBX 6 10 0 0
BITMAP
036000
006400
480048
480048
480048
480048
480048
471058
374455
058871
ENDCHAR
STARTCHAR Uacute
ENCODING 218
SWIDTH 702 0
DWIDTH 6 0
BBX 6 10 0 0
BITMAP
000550
001710
480048
480048
480048
480048
480048
471058
374455
058871
ENDCHAR
STARTCHAR Ucircumflex
ENCODING 219
SWIDTH 702 0
DWIDTH 6 0
BBX 6 10 0 0
BITMAP
007510
055550
480048
480048
480048
480048
480048
471058
374455
058871
ENDCHAR
STARTCHAR Udieresis
ENCODING 220
SWIDTH 702 0
DWIDTH 6 0
BBX 6 11 0 0
BITMAP
043250
044413
043250
480048
480048
480048
480048
480048
471058
374455
058871
ENDCHAR
STARTCHAR Yacute
ENCODING 221
SWIDTH 769 0
DWIDTH 7 0
BBX 7 10 0 0
BITMAP
00036000
00073000
57203750
17606710
04666400
00775000
00332000
00453000
00453000
00453000
ENDCHAR
STARTCHAR Thorn
ENCODING 222
SWIDTH 743 0
DWIDTH 7 0
BBX 7 8 0 0
BITMAP
48000000
48344300
48344620
48345550
48345650
48344520
48344300
48000000
ENDCHAR
STARTCHAR germandbls
ENCODING 223
SWIDTH 424 0
DWIDTH 4 0
BBX 4 4 0 0
BITMAP
4992
5464
5444
5693
ENDCHAR
STARTCHAR agrave
ENCODING 224
SWIDTH 414 0
DWIDTH 4 0
BBX 4 6 0 0
BITMAP
0500
0000
0660
1770
4672
6674
ENDCHAR
STARTCHAR aacute
ENCODING 225
SWIDTH 414 0
DWIDTH 4 0
BBX 4 6 0 0
BITMAP
0040
0000
0660
1770
4672
6674
ENDCHAR
STARTCHAR acircumflex
ENCODING 226
SWIDTH 414 0
DWIDTH 4 0
BBX 4 6 0 0
BITMAP
0530
0000
0660
1770
4672
6674
ENDCHAR
STARTCHAR atilde
ENCODING 227
SWIDTH 414 0
DWIDTH 4 0
BBX 4 5 0 0
BITMAP
0130
0660
1770
4672
6674
ENDCHAR
STARTCHAR adieresis
ENCODING 228
SWIDTH 414 0
DWIDTH 4 0
BBX 4 6 0 0
BITMAP
0670
0000
0660
1770
4672
6674
ENDCHAR
STARTCHAR aring
ENCODING 229
SWIDTH 414 0
DWIDTH 4 0
BBX 4 6 0 0
BITMAP
0320
0320
0660
1770
4672
6674
ENDCHAR
STARTCHAR ae
ENCODING 230
SWIDTH 593 0
DWIDTH 5 0
BBX 6 4 0 0
BITMAP
037981
058640
275740
587981
ENDCHAR
STARTCHAR ccedilla
ENCODING 231
SWIDTH 446 0
DWIDTH 4 0
BBX 4 6 0 -2
BITMAP
2883
5300
5300
2883
0350
0240
ENDCHAR
STARTCHAR egrave
ENCODING 232
SWIDTH 363 0
DWIDTH 3 0
BBX 4 6 0 0
BITMAP
0500
0000
5A81
5730
5730
5A81
ENDCHAR
STARTCHAR eacute
ENCODING 233
SWIDTH 363 0
DWIDTH 3 0
BBX 4 6 0 0
BITMAP
0140
0000
5A81
5730
5730
5A81
ENDCHAR
STARTCHAR ecircumflex
ENCODING 234
SWIDTH 363 0
DWIDTH 3 0
BBX 4 6 0 0
BITMAP
0530
0000
5A81
5730
5730
5A81
ENDCHAR
STARTCHAR edieresis
ENCODING 235
SWIDTH 363 0
DWIDTH 3 0
BBX 4 6 0 0
BITMAP
0670
0000
5A81
5730
5730
5A81
ENDCHAR
STARTCHAR igrave
ENCODING 236
SWIDTH 176 0
DWIDTH 2 0
BBX 2 6 0 0
BITMAP
50
00
53
53
53
53
ENDCHAR
STARTCHAR iacute
ENCODING 237
SWIDTH 176 0
DWIDTH 2 0
BBX 2 6 0 0
BITMAP
14
00
53
53
53
53
ENDCHAR
STARTCHAR icircumflex
ENCODING 238
SWIDTH 176 0
DWIDTH 2 0
BBX 2 6 0 0
BITMAP
53
00
53
53
53
53
ENDCHAR
STARTCHAR idieresis
ENCODING 239
SWIDTH 176 0
DWIDTH 2 0
BBX 2 6 0 0
BITMAP
67
00
53
53
53
53
ENDCHAR
STARTCHAR eth
ENCODING 240
SWIDTH 455 0
DWIDTH 4 0
BBX 4 4 0 0
BITMAP
4A92
2226
4426
4A92
ENDCHAR
STARTCHAR ntilde
ENCODING 241
SWIDTH 444 0
DWIDTH 4 0
BBX 4 5 0 0
BITMAP
0130
5745
5965
5695
5375
ENDCHAR
STARTCHAR ograve
ENCODING 242
SWIDTH 494 0
DWIDTH 4 0
BBX 5 6 0 0
BITMAP
032000
000000
289400
530710
530710
289400
ENDCHAR
STARTCHAR oacute
ENCODING 243
SWIDTH 494 0
DWIDTH 4 0
BBX 5 6 0 0
BITMAP
005000
000000
289400
530710
530710
289400
ENDCHAR
STARTCHAR ocircumflex
ENCODING 244
SWIDTH 494 0
DWIDTH 4 0
BBX 5 6 0 0
BITMAP
044000
000000
289400
530710
530710
289400
ENDCHAR
STARTCHAR otilde
ENCODING 245
SWIDTH 494 0
DWIDTH 4 0
BBX 5 5 0 0
BITMAP
013000
289400
530710
530710
289400
ENDCHAR
STARTCHAR odieresis
ENCODING 246
SWIDTH 494 0
DWIDTH 4 0
BBX 5 6 0 0
BITMAP
066000
000000
289400
530710
530710
289400
ENDCHAR
STARTCHAR divide
ENCODING 247
SWIDTH 418 0
DWIDTH 4 0
BBX 4 4 0 0
BITMAP
0320
3552
3552
0320
ENDCHAR
STARTCHAR oslash
ENCODING 248
SWIDTH 494 0
DWIDTH 4 0
BBX 5 4 0 0
BITMAP
186600
535520
561710
359400
ENDCHAR
STARTCHAR ugrave
ENCODING 249
SWIDTH 400 0
DWIDTH 4 0
BBX 4 6 0 0
BITMAP
0500
0000
5344
5344
4353
3870
ENDCHAR
STARTCHAR uacute
ENCODING 250
SWIDTH 400 0
DWIDTH 4 0
BBX 4 6 0 0
BITMAP
0230
0000
5344
5344
4353
3870
ENDCHAR
STARTCHAR ucircumflex
ENCODING 251
SWIDTH 400 0
DWIDTH 4 0
BBX 4 6 0 0
BITMAP
0530
0000
5344
5344
4353
3870
ENDCHAR
STARTCHAR udieresis
ENCODING 252
SWIDTH 400 0
DWIDTH 4 0
BBX 4 6 0 0
BITMAP
0670
0000
5344
5344
4353
3870
ENDCHAR
STARTCHAR yacute
ENCODING 253
SWIDTH 422 0
DWIDTH 4 0
BBX 4 6 0 0
BITMAP
0140
0000
5564
1880
0330
0440
ENDCHAR
STARTCHAR thorn
ENCODING 254
SWIDTH 412 0
DWIDTH 4 0
BBX 4 4 0 0
BITMAP
5751
5744
5744
5751
ENDCHAR
STARTCHAR ydieresis
ENCODING 255
SWIDTH 422 0
DWIDTH 4 0
BBX 4 6 0 0
BITMAP
0670
0000
5564
1880
0330
0440
ENDCHAR
STARTCHAR Edotaccent
ENCODING 278
SWIDTH 677 0
DWIDTH 6 0
BBX 6 10 0 0
BITMAP
000800
000000
486887
483443
480000
483441
486883
480000
483443
486887
ENDCHAR
STARTCHAR edotaccent
ENCODING 279
SWIDTH 363 0
DWIDTH 3 0
BBX 4 6 0 0
BITMAP
0620
0000
5A81
5730
5730
5A81
ENDCHAR
STARTCHAR dotlessi
ENCODING 305
SWIDTH 176 0
DWIDTH 2 0
BBX 2 4 0 0
BITMAP
53
53
53
53
ENDCHAR
STARTCHAR OE
ENCODING 338
SWIDTH 1221 0
DWIDTH 11 0
BBX 11 8 0 0
BITMAP
018980078860
085440044430
574000000000
670000044410
670000078820
563000000000
184440044430
017980078860
ENDCHAR
STARTCHAR oe
ENCODING 339
SWIDTH 637 0
DWIDTH 6 0
BBX 6 4 0 0
BITMAP
297385
530141
530141
287385
ENDCHAR
STARTCHAR Wcircumflex
ENCODING 372
SWIDTH 972 0
DWIDTH 9 0
BBX 9 10 0 0
BITMAP
0006520000
0046370000
5704631740
4814814630
3547544800
1857566500
0766584400
0485465300
0464175000
0274085000
ENDCHAR
STARTCHAR wcircumflex
ENCODING 373
SWIDTH 521 0
DWIDTH 5 0
BBX 5 6 0 0
BITMAP
035000
000000
738440
488630
468A00
195700
ENDCHAR
STARTCHAR Ycircumflex
ENCODING 374
SWIDTH 769 0
DWIDTH 7 0
BBX 7 10 0 0
BITMAP
00553000
03737100
57203750
17606710
04666400
00775000
00332000
00453000
00453000
00453000
ENDCHAR
STARTCHAR ycircumflex
ENCODING 375
SWIDTH 422 0
DWIDTH 4 0
BBX 4 6 0 0
BITMAP
0530
0000
5564
1880
0330
0440
ENDCHAR
STARTCHAR Ydieresis
ENCODING 376
SWIDTH 769 0
DWIDTH 7 0
BBX 7 11 0 0
BITMAP
02505200
04332500
02505200
57203750
17606710
04666400
00775000
00332000
00453000
00453000
00453000
ENDCHAR
STARTCHAR circumflex
ENCODING 710
SWIDTH 298 0
DWIDTH 3 0
BBX 3 1 0 5
BITMAP
3510
ENDCHAR
STARTCHAR dotaccent
ENCODING 729
SWIDTH 212 0
DWIDTH 2 0
BBX 2 1 0 5
BITMAP
54
ENDCHAR
STARTCHAR ring
ENCODING 730
SWIDTH 212 0
DWIDTH 2 0
BBX 2 2 0 4
BITMAP
22
22
ENDCHAR
STARTCHAR tilde
ENCODING 732
SWIDTH 329 0
DWIDTH 3 0
BBX 3 1 0 4
BITMAP
1210
ENDCHAR
STARTCHAR gravecomb
ENCODING 768
SWIDTH 0 0
DWIDTH 0 0
BBX 2 1 0 5
BITMAP
31
ENDCHAR
STARTCHAR acutecomb
ENCODING 769
SWIDTH 0 0
DWIDTH 0 0
BBX 2 1 0 5
BITMAP
41
ENDCHAR
STARTCHAR uni0302
ENCODING 770
SWIDTH 0 0
DWIDTH 0 0
BBX 3 1 0 5
BITMAP
3510
ENDCHAR
STARTCHAR tildecomb
ENCODING 771
SWIDTH 0 0
DWIDTH 0 0
BBX 3 1 0 4
BITMAP
1210
ENDCHAR
STARTCHAR uni0307
ENCODING 775
SWIDTH 0 0
DWIDTH 0 0
BBX 2 1 0 5
BITMAP
54
ENDCHAR
STARTCHAR uni0308
ENCODING 776
SWIDTH 0 0
DWIDTH 0 0
BBX 3 1 0 5
BITMAP
6610
ENDCHAR
STARTCHAR uni030A
ENCODING 778
SWIDTH 0 0
DWIDTH 0 0
BBX 2 2 0 4
BITMAP
22
22
ENDCHAR
STARTCHAR uni0327
ENCODING 807
SWIDTH 0 0
DWIDTH 0 0
BBX 2 2 0 -2
BITMAP
35
24
ENDCHAR
STARTCHAR Wgrave
ENCODING 7808
SWIDTH 972 0
DWIDTH 9 0
BBX 9 10 0 0
BITMAP
0004500000
0000720000
5704631740
4814814630
3547544800
1857566500
0766584400
0485465300
0464175000
0274085000
ENDCHAR
STARTCHAR wgrave
ENCODING 7809
SWIDTH 521 0
DWIDTH 5 0
BBX 5 6 0 0
BITMAP
005000
000000
738440
488630
468A00
195700
ENDCHAR
STARTCHAR Wacute
ENCODING 7810
SWIDTH 972 0
DWIDTH 9 0
BBX 9 10 0 0
BITMAP
0000720000
0004500000
5704631740
4814814630
3547544800
1857566500
0766584400
0485465300
0464175000
0274085000
ENDCHAR
STARTCHAR wacute
ENCODING 7811
SWIDTH 521 0
DWIDTH 5 0
BBX 5 6 0 0
BITMAP
005000
000000
738440
488630
468A00
195700
ENDCHAR
STARTCHAR Wdieresis
ENCODING 7812
SWIDTH 972 0
DWIDTH 9 0
BBX 9 11 0 0
BITMAP
0034052000
0044315000
0034052000
5704631740
4814814630
3547544800
1857566500
0766584400
0485465300
0464175000
0274085000
ENDCHAR
STARTCHAR wdieresis
ENCODING 7813
SWIDTH 521 0
DWIDTH 5 0
BBX 5 6 0 0
BITMAP
065200
000000
738440
488630
468A00
195700
ENDCHAR
STARTCHAR uni1E9E
ENCODING 7838
SWIDTH 784 0
DWIDTH 7 0
BBX 7 8 0 0
BITMAP
48688800
48344400
48027500
48057510
48164740
48000760
48144650
48288810
ENDCHAR
STARTCHAR Ygrave
ENCODING 7922
SWIDTH 769 0
DWIDTH 7 0
BBX 7 10 0 0
BITMAP
00460000
00063000
57203750
17606710
04666400
00775000
00332000
00453000
00453000
00453000
ENDCHAR
STARTCHAR ygrave
ENCODING 7923
SWIDTH 422 0
DWIDTH 4 0
BBX 4 6 0 0
BITMAP
0320
0000
5564
1880
0330
0440
ENDCHAR
STARTCHAR endash
ENCODING 8211
SWIDTH 507 0
DWIDTH 5 0
BBX 4 2 0 1
BITMAP
2444
2444
ENDCHAR
STARTCHAR emdash
ENCODING 8212
SWIDTH 552 0
DWIDTH 5 0
BBX 5 2 0 1
BITMAP
244420
244420
ENDCHAR
STARTCHAR quoteleft
ENCODING 8216
SWIDTH 146 0
DWIDTH 1 0
BBX 2 2 0 2
BITMAP
51
20
ENDCHAR
STARTCHAR quoteright
ENCODING 8217
SWIDTH 146 0
DWIDTH 1 0
BBX 2 2 0 2
BITMAP
61
10
ENDCHAR
STARTCHAR quotesinglbase
ENCODING 8218
SWIDTH 146 0
DWIDTH 1 0
BBX 2 2 0 -2
BITMAP
51
10
ENDCHAR
STARTCHAR quotedblleft
ENCODING 8220
SWIDTH 297 0
DWIDTH 3 0
BBX 3 2 0 2
BITMAP
5520
2210
ENDCHAR
STARTCHAR quotedblright
ENCODING 8221
SWIDTH 297 0
DWIDTH 3 0
BBX 3 2 0 2
BITMAP
6440
1010
ENDCHAR
STARTCHAR quotedblbase
ENCODING 8222
SWIDTH 297 0
DWIDTH 3 0
BBX 3 2 0 -2
BITMAP
5440
1010
ENDCHAR
STARTCHAR bullet
ENCODING 8226
SWIDTH 302 0
DWIDTH 3 0
BBX 3 3 0 1
BITMAP
2500
4130
2500
ENDCHAR
STARTCHAR ellipsis
ENCODING 8230
SWIDTH 528 0
DWIDTH 5 0
BBX 5 1 0 0
BITMAP
436330
ENDCHAR
STARTCHAR guilsinglleft
ENCODING 8249
SWIDTH 178 0
DWIDTH 2 0
BBX 2 2 0 1
BITMAP
31
42
ENDCHAR
STARTCHAR guilsinglright
ENCODING 8250
SWIDTH 178 0
DWIDTH 2 0
BBX 2 2 0 1
BITMAP
31
41
ENDCHAR
STARTCHAR fraction
ENCODING 8260
SWIDTH 362 0
DWIDTH 3 0
BBX 3 4 0 0
BITMAP
0270
0540
2700
5400
ENDCHAR
STARTCHAR uni2074
ENCODING 8308
SWIDTH 204 0
DWIDTH 2 0
BBX 2 2 0 2
BITMAP
41
45
ENDCHAR
STARTCHAR Euro
ENCODING 8364
SWIDTH 462 0
DWIDTH 4 0
BBX 4 4 0 0
BITMAP
2885
4400
4400
2885
ENDCHAR
STARTCHAR trademark
ENCODING 8482
SWIDTH 461 0
DWIDTH 4 0
BBX 4 3 0 1
BITMAP
C956
4255
1001
ENDCHAR
STARTCHAR minus
ENCODING 8722
SWIDTH 420 0
DWIDTH 4 0
BBX 4 3 0 0
BITMAP
1111
AFF6
3442
ENDCHAR
STARTCHAR uni2215
ENCODING 8725
SWIDTH 278 0
DWIDTH 3 0
BBX 3 4 0 0
BITMAP
0220
0710
3600
5400
ENDCHAR
STARTCHAR .notdef
ENCODING -1
SWIDTH 500 0
DWIDTH 5 0
BBX 5 11 0 -2
BITMAP
577800
700610
700610
700610
700610
700610
700610
700610
700610
700610
577800
ENDCHAR
STARTCHAR NULL
ENCODING -1
SWIDTH 600 0
DWIDTH 5 0
BBX 1 1 0 0
BITMAP
00
ENDCHAR
STARTCHAR acutecomb.case
ENCODING -1
SWIDTH 0 0
DWIDTH 0 0
BBX 3 2 0 8
BITMAP
0630
3600
ENDCHAR
STARTCHAR ampersand.case
ENCODING -1
SWIDTH 797 0
DWIDTH 7 0
BBX 7 8 0 0
BITMAP
01885000
05546300
05947300
05765000
45682410
68277540
56457500
17776730
ENDCHAR
STARTCHAR asciicircum.case
ENCODING -1
SWIDTH 540 0
DWIDTH 5 0
BBX 5 4 0 4
BITMAP
006000
045300
173700
540540
ENDCHAR
STARTCHAR asciitilde.case
ENCODING -1
SWIDTH 640 0
DWIDTH 6 0
BBX 6 3 0 3
BITMAP
354002
445673
244771
ENDCHAR
STARTCHAR asterisk.case
ENCODING -1
SWIDTH 482 0
DWIDTH 4 0
BBX 4 4 0 4
BITMAP
1441
3416
0532
0320
ENDCHAR
STARTCHAR at.case
ENCODING -1
SWIDTH 915 0
DWIDTH 8 0
BBX 8 8 0 0
BITMAP
01688720
07300171
45045426
54621708
54721617
46145104
07400141
01698700
ENDCHAR
STARTCHAR backslash.case
ENCODING -1
SWIDTH 504 0
DWIDTH 5 0
BBX 5 9 0 -1
BITMAP
670000
472000
274000
076000
048100
036400
008500
005800
004640
ENDCHAR
STARTCHAR bar.case
ENCODING -1
SWIDTH 262 0
DWIDTH 2 0
BBX 2 9 0 -1
BITMAP
48
48
48
48
48
48
48
48
48
ENDCHAR
STARTCHAR braceleft.case
ENCODING -1
SWIDTH 504 0
DWIDTH 5 0
BBX 5 10 0 -1
BITMAP
035300
048300
048300
048000
258000
568000
048000
048000
048610
035300
ENDCHAR
STARTCHAR braceright.case
ENCODING -1
SWIDTH 506 0
DWIDTH 5 0
BBX 5 10 0 -2
BITMAP
245000
568000
048000
048000
048610
048300
048000
258000
258000
245000
ENDCHAR
STARTCHAR bracketleft.case
ENCODING -1
SWIDTH 453 0
DWIDTH 4 0
BBX 4 10 0 -1
BITMAP
3533
4833
4833
4800
4800
4800
4800
4800
4876
3533
ENDCHAR
STARTCHAR bracketright.case
ENCODING -1
SWIDTH 453 0
DWIDTH 4 0
BBX 4 10 0 -2
BITMAP
2453
5884
0084
0084
0084
0084
0084
2484
2484
2453
ENDCHAR
STARTCHAR brokenbar.case
ENCODING -1
SWIDTH 262 0
DWIDTH 2 0
BBX 2 9 0 0
BITMAP
48
48
48
48
00
48
48
48
48
ENDCHAR
STARTCHAR bullet.case
ENCODING -1
SWIDTH 503 0
DWIDTH 5 0
BBX 4 5 0 2
BITMAP
0452
3555
4407
3556
0452
ENDCHAR
STARTCHAR uni0327.case
ENCODING -1
SWIDTH 0 0
DWIDTH 0 0
BBX 3 3 0 -3
BITMAP
0100
1620
2420
ENDCHAR
STARTCHAR cent.case
ENCODING -1
SWIDTH 577 0
DWIDTH 5 0
BBX 5 10 0 -1
BITMAP
004400
001100
025530
164520
481000
470000
255540
025510
004400
001100
ENDCHAR
STARTCHAR uni0302.case
ENCODING -1
SWIDTH 0 0
DWIDTH 0 0
BBX 5 2 0 8
BITMAP
055300
373710
ENDCHAR
STARTCHAR colon.case
ENCODING -1
SWIDTH 262 0
DWIDTH 2 0
BBX 2 5 0 0
BITMAP
48
25
00
25
48
ENDCHAR
STARTCHAR comma.case
ENCODING -1
SWIDTH 338 0
DWIDTH 3 0
BBX 3 3 0 -1
BITMAP
0420
2640
4710
ENDCHAR
STARTCHAR copyright.case
ENCODING -1
SWIDTH 895 0
DWIDTH 8 0
BBX 8 8 0 0
BITMAP
01799710
08300281
45045154
53620036
53720036
45145154
08300281
01799710
ENDCHAR
STARTCHAR currency.case
ENCODING -1
SWIDTH 676 0
DWIDTH 6 0
BBX 6 6 0 0
BITMAP
150051
445555
055560
165561
445564
140041
ENDCHAR
STARTCHAR degree.case
ENCODING -1
SWIDTH 413 0
DWIDTH 4 0
BBX 4 4 0 4
BITMAP
3A91
6354
5554
1540
ENDCHAR
STARTCHAR uni0308.case
ENCODING -1
SWIDTH 0 0
DWIDTH 0 0
BBX 5 3 0 8
BITMAP
250530
423350
250530
ENDCHAR
STARTCHAR divide.case
ENCODING -1
SWIDTH 618 0
DWIDTH 6 0
BBX 6 6 0 1
BITMAP
003300
003200
244440
599991
003300
003200
ENDCHAR
STARTCHAR uni2215.case
ENCODING -1
SWIDTH 483 0
DWIDTH 4 0
BBX 4 8 0 0
BITMAP
0058
0085
0364
0481
0760
2640
4710
6700
ENDCHAR
STARTCHAR dollar.case
ENCODING -1
SWIDTH 660 0
DWIDTH 6 0
BBX 6 9 0 -1
BITMAP
005500
265671
475673
575400
167661
004674
375674
375672
015510
ENDCHAR
STARTCHAR eight.case
ENCODING -1
SWIDTH 561 0
DWIDTH 5 0
BBX 5 8 0 0
BITMAP
178710
565650
680760
488630
367940
670760
565550
178710
ENDCHAR
STARTCHAR ellipsis.case
ENCODING -1
SWIDTH 766 0
DWIDTH 7 0
BBX 7 2 0 0
BITMAP
25232420
48453840
ENDCHAR
STARTCHAR emdash.case
ENCODING -1
SWIDTH 790 0
DWIDTH 7 0
BBX 7 2 0 3
BITMAP
24444430
59999960
ENDCHAR
STARTCHAR endash.case
ENCODING -1
SWIDTH 721 0
DWIDTH 6 0
BBX 6 2 0 3
BITMAP
244444
599999
ENDCHAR
STARTCHAR equal.case
ENCODING -1
SWIDTH 618 0
DWIDTH 6 0
BBX 5 5 0 1
BITMAP
244440
244440
000000
244440
244440
ENDCHAR
STARTCHAR Euro.case
ENCODING -1
SWIDTH 767 0
DWIDTH 7 0
BBX 7 8 0 0
BITMAP
00598810
04744530
07500200
44442000
78884000
07600200
04644530
00588710
ENDCHAR
STARTCHAR exclam.case
ENCODING -1
SWIDTH 262 0
DWIDTH 2 0
BBX 2 8 0 0
BITMAP
48
48
48
48
48
37
25
48
ENDCHAR
STARTCHAR exclamdown.case
ENCODING -1
SWIDTH 262 0
DWIDTH 2 0
BBX 2 8 0 -2
BITMAP
48
25
37
48
48
48
48
48
ENDCHAR
STARTCHAR five.case
ENCODING -1
SWIDTH 558 0
DWIDTH 5 0
BBX 5 8 0 0
BITMAP
488840
244420
480000
483400
376740
330760
565650
178710
ENDCHAR
STARTCHAR four.case
ENCODING -1
SWIDTH 585 0
DWIDTH 5 0
BBX 5 8 0 0
BITMAP
007700
036400
058100
175000
466630
346650
346650
004630
ENDCHAR
STARTCHAR uni2074.case
ENCODING -1
SWIDTH 312 0
DWIDTH 3 0
BBX 3 4 0 4
BITMAP
1700
4400
3540
0330
ENDCHAR
STARTCHAR fraction.case
ENCODING -1
SWIDTH 655 0
DWIDTH 6 0
BBX 6 8 0 0
BITMAP
000063
000360
000630
003600
006300
036000
063000
460000
ENDCHAR
STARTCHAR gravecomb.case
ENCODING -1
SWIDTH 0 0
DWIDTH 0 0
BBX 3 2 0 8
BITMAP
3600
0630
ENDCHAR
STARTCHAR greater.case
ENCODING -1
SWIDTH 677 0
DWIDTH 6 0
BBX 6 7 0 0
BITMAP
200000
473000
377620
005773
156620
475000
320000
ENDCHAR
STARTCHAR guillemotleft.case
ENCODING -1
SWIDTH 666 0
DWIDTH 6 0
BBX 6 5 0 1
BITMAP
033033
365364
472471
374374
023023
ENDCHAR
STARTCHAR guillemotright.case
ENCODING -1
SWIDTH 666 0
DWIDTH 6 0
BBX 6 5 0 1
BITMAP
330330
463563
174273
473473
320320
ENDCHAR
STARTCHAR guilsinglleft.case
ENCODING -1
SWIDTH 338 0
DWIDTH 3 0
BBX 3 5 0 1
BITMAP
0330
3650
4720
3740
0230
ENDCHAR
STARTCHAR guilsinglright.case
ENCODING -1
SWIDTH 338 0
DWIDTH 3 0
BBX 3 5 0 1
BITMAP
3300
4630
1740
4730
3200
ENDCHAR
STARTCHAR hyphen.case
ENCODING -1
SWIDTH 445 0
DWIDTH 4 0
BBX 4 2 0 3
BITMAP
2442
5995
ENDCHAR
STARTCHAR less.case
ENCODING -1
SWIDTH 677 0
DWIDTH 6 0
BBX 6 7 0 0
BITMAP
000013
000475
025662
277600
015773
000364
000003
ENDCHAR
STARTCHAR logicalnot.case
ENCODING -1
SWIDTH 618 0
DWIDTH 6 0
BBX 6 4 0 1
BITMAP
355550
599991
000241
000462
ENDCHAR
STARTCHAR uni00B5.case
ENCODING -1
SWIDTH 792 0
DWIDTH 7 0
BBX 7 10 0 -2
BITMAP
48004800
48004800
48004800
48004800
48004800
48005800
48445640
48787380
48000000
48000000
ENDCHAR
STARTCHAR minus.case
ENCODING -1
SWIDTH 618 0
DWIDTH 6 0
BBX 6 2 0 3
BITMAP
244440
599991
ENDCHAR
STARTCHAR multiply.case
ENCODING -1
SWIDTH 580 0
DWIDTH 5 0
BBX 5 5 0 1
BITMAP
053530
075750
057630
375760
030010
ENDCHAR
STARTCHAR nine.case
ENCODING -1
SWIDTH 558 0
DWIDTH 5 0
BBX 5 8 0 -1
BITMAP
178710
555650
570670
478670
044670
340670
565650
178710
ENDCHAR
STARTCHAR numbersign.case
ENCODING -1
SWIDTH 776 0
DWIDTH 7 0
BBX 7 8 0 0
BITMAP
02744800
15555720
15744420
15835520
25538510
24446610
05246300
17448100
ENDCHAR
STARTCHAR one.case
ENCODING -1
SWIDTH 378 0
DWIDTH 3 0
BBX 3 8 0 0
BITMAP
8680
4580
0480
0480
0480
0480
0480
0480
ENDCHAR
STARTCHAR onehalf.case
ENCODING -1
SWIDTH 735 0
DWIDTH 7 0
BBX 7 8 0 0
BITMAP
55404500
04407100
04445000
01271000
00456910
00713710
04505500
17104400
ENDCHAR
STARTCHAR onequarter.case
ENCODING -1
SWIDTH 722 0
DWIDTH 7 0
BBX 7 8 0 0
BITMAP
55404500
04407100
04445000
01271000
00455400
00726100
04514710
17100500
ENDCHAR
STARTCHAR uni00B9.case
ENCODING -1
SWIDTH 306 0
DWIDTH 3 0
BBX 3 4 0 4
BITMAP
5540
0440
0440
0110
ENDCHAR
STARTCHAR ordfeminine.case
ENCODING -1
SWIDTH 456 0
DWIDTH 4 0
BBX 4 4 0 4
BITMAP
0570
0881
3664
2122
ENDCHAR
STARTCHAR ordmasculine.case
ENCODING -1
SWIDTH 489 0
DWIDTH 4 0
BBX 4 4 0 4
BITMAP
19A4
4408
4455
0442
ENDCHAR
STARTCHAR paragraph.case
ENCODING -1
SWIDTH 893 0
DWIDTH 8 0
BBX 8 8 0 0
BITMAP
19999995
66544443
68005644
54445744
05545744
00005744
00005744
00005744
ENDCHAR
STARTCHAR parenleft.case
ENCODING -1
SWIDTH 290 0
DWIDTH 3 0
BBX 3 9 0 -1
BITMAP
0850
3630
4800
5700
6700
5700
4800
3630
0850
ENDCHAR
STARTCHAR parenright.case
ENCODING -1
SWIDTH 290 0
DWIDTH 3 0
BBX 4 9 -1 -1
BITMAP
1850
0580
0472
0364
0264
0364
0472
0580
1850
ENDCHAR
STARTCHAR percent.case
ENCODING -1
SWIDTH 827 0
DWIDTH 7 0
BBX 8 8 0 0
BITMAP
39810771
63544740
45447700
14457300
00673430
04646560
17709071
57305970
ENDCHAR
STARTCHAR period.case
ENCODING -1
SWIDTH 262 0
DWIDTH 2 0
BBX 2 2 0 0
BITMAP
25
48
ENDCHAR
STARTCHAR periodcentered.case
ENCODING -1
SWIDTH 262 0
DWIDTH 2 0
BBX 2 2 0 3
BITMAP
25
48
ENDCHAR
STARTCHAR plus.case
ENCODING -1
SWIDTH 616 0
DWIDTH 6 0
BBX 6 6 0 1
BITMAP
002100
008400
238540
568691
008400
006300
ENDCHAR
STARTCHAR plusminus.case
ENCODING -1
SWIDTH 618 0
DWIDTH 6 0
BBX 6 7 0 0
BITMAP
002100
008400
238540
568691
008400
24B840
599991
ENDCHAR
STARTCHAR question.case
ENCODING -1
SWIDTH 598 0
DWIDTH 5 0
BBX 5 8 0 0
BITMAP
079820
465580
240580
003760
009610
017400
004200
017400
ENDCHAR
STARTCHAR questiondown.case
ENCODING -1
SWIDTH 598 0
DWIDTH 5 0
BBX 5 8 0 -2
BITMAP
008400
004200
017400
056400
466000
580240
465570
079920
ENDCHAR
STARTCHAR quotedbl.case
ENCODING -1
SWIDTH 464 0
DWIDTH 4 0
BBX 4 3 0 5
BITMAP
7648
7648
4324
ENDCHAR
STARTCHAR quotedblbase.case
ENCODING -1
SWIDTH 464 0
DWIDTH 4 0
BBX 4 3 0 -1
BITMAP
7648
5628
2305
ENDCHAR
STARTCHAR quotedblleft.case
ENCODING -1
SWIDTH 464 0
DWIDTH 4 0
BBX 4 3 0 4
BITMAP
4122
7447
7648
ENDCHAR
STARTCHAR quotedblright.case
ENCODING -1
SWIDTH 464 0
DWIDTH 4 0
BBX 4 3 0 5
BITMAP
7648
5628
2305
ENDCHAR
STARTCHAR quoteleft.case
ENCODING -1
SWIDTH 212 0
DWIDTH 2 0
BBX 2 3 0 4
BITMAP
41
74
76
ENDCHAR
STARTCHAR quoteright.case
ENCODING -1
SWIDTH 212 0
DWIDTH 2 0
BBX 2 3 0 5
BITMAP
76
56
23
ENDCHAR
STARTCHAR quotesinglbase.case
ENCODING -1
SWIDTH 212 0
DWIDTH 2 0
BBX 2 3 0 -1
BITMAP
76
56
23
ENDCHAR
STARTCHAR quotesingle.case
ENCODING -1
SWIDTH 212 0
DWIDTH 2 0
BBX 2 3 0 5
BITMAP
76
76
43
ENDCHAR
STARTCHAR registered.case
ENCODING -1
SWIDTH 895 0
DWIDTH 8 0
BBX 8 8 0 0
BITMAP
01799710
08300281
45355254
53465536
53469236
45444454
08300381
01799710
ENDCHAR
STARTCHAR uni030A.case
ENCODING -1
SWIDTH 0 0
DWIDTH 0 0
BBX 3 3 0 8
BITMAP
2610
5040
2610
ENDCHAR
STARTCHAR section.case
ENCODING -1
SWIDTH 645 0
DWIDTH 6 0
BBX 6 11 0 -2
BITMAP
024430
179863
355410
076560
266663
472473
379640
036881
244754
455451
034420
ENDCHAR
STARTCHAR semicolon.case
ENCODING -1
SWIDTH 338 0
DWIDTH 3 0
BBX 3 6 0 -1
BITMAP
0840
0520
0000
0420
2640
4710
ENDCHAR
STARTCHAR seven.case
ENCODING -1
SWIDTH 505 0
DWIDTH 5 0
BBX 5 8 0 0
BITMAP
799920
344410
004800
007600
017400
046300
048000
075000
ENDCHAR
STARTCHAR six.case
ENCODING -1
SWIDTH 558 0
DWIDTH 5 0
BBX 5 8 0 0
BITMAP
178710
565650
670330
664400
668740
670760
565650
178710
ENDCHAR
STARTCHAR slash.case
ENCODING -1
SWIDTH 504 0
DWIDTH 5 0
BBX 5 9 0 -1
BITMAP
004640
005800
008500
036400
048100
076000
274000
472000
670000
ENDCHAR
STARTCHAR uni00AD.case
ENCODING -1
SWIDTH 445 0
DWIDTH 4 0
BBX 4 2 0 3
BITMAP
2442
5995
ENDCHAR
STARTCHAR sterling.case
ENCODING -1
SWIDTH 618 0
DWIDTH 6 0
BBX 6 8 0 0
BITMAP
078840
465572
480110
344400
788800
353000
444441
888882
ENDCHAR
STARTCHAR three.case
ENCODING -1
SWIDTH 558 0
DWIDTH 5 0
BBX 5 8 0 0
BITMAP
178710
565650
340760
002640
004740
340760
565650
178710
ENDCHAR
STARTCHAR threequarters.case
ENCODING -1
SWIDTH 722 0
DWIDTH 7 0
BBX 7 8 0 0
BITMAP
39304500
03307100
22445000
25271000
00455400
00726100
04514710
17100500
ENDCHAR
STARTCHAR uni00B3.case
ENCODING -1
SWIDTH 332 0
DWIDTH 3 0
BBX 3 4 0 4
BITMAP
3930
0330
2240
2520
ENDCHAR
STARTCHAR tildecomb.case
ENCODING -1
SWIDTH 0 0
DWIDTH 0 0
BBX 4 2 0 8
BITMAP
2513
2043
ENDCHAR
STARTCHAR trademark.case
ENCODING -1
SWIDTH 850 0
DWIDTH 8 0
BBX 8 4 0 4
BITMAP
8C948174
08048874
08045644
08044044
ENDCHAR
STARTCHAR two.case
ENCODING -1
SWIDTH 558 0
DWIDTH 5 0
BBX 5 8 0 0
BITMAP
188810
565650
330760
003740
027700
177200
244420
488850
ENDCHAR
STARTCHAR uni00B2.case
ENCODING -1
SWIDTH 339 0
DWIDTH 3 0
BBX 3 4 0 4
BITMAP
3A40
1640
3520
2420
ENDCHAR
STARTCHAR underscore.case
ENCODING -1
SWIDTH 667 0
DWIDTH 6 0
BBX 6 2 0 0
BITMAP
244442
588885
ENDCHAR
STARTCHAR yen.case
ENCODING -1
SWIDTH 769 0
DWIDTH 7 0
BBX 7 8 0 0
BITMAP
57203750
27606710
05756400
01766000
00342000
03655200
03655200
00453000
ENDCHAR
STARTCHAR zero.case
ENCODING -1
SWIDTH 558 0
DWIDTH 5 0
BBX 5 8 0 0
BITMAP
178710
565650
670660
660660
660660
670660
565650
178710
ENDCHAR
ENDFONT
